# xmcd
#
# Track frame offsets:
#	150
#	13814
#	24892
#	39703
#	53360
#	66778
#	79343
#	92517
#	104139
#	115748
#	128534
#	144642
#	156587
#
# Disc length: 2249 seconds
#
# Revision: 4
# Processed by: cddbd v1.5.2PL0 Copyright (c) Steve Scherf et al.
# Submitted via: EZCDAudioConverter 2.1.3.1
#
DISCID=a808c70d
DTITLE=Janie Fricke - The Bluegrass Sessions
DYEAR=2004
DGENRE=Bluegrass
TTITLE0=You Don't Know Love
TTITLE1=Goodbye Broken Heart
TTITLE2=Do Me With Love
TTITLE3=Faithless Love
TTITLE4=He's A Heartache
TTITLE5=Please Help Me, I'm Falling (In Love With You)
TTITLE6=She's Single Again
TTITLE7=I'll Need Someone To Hold Me (When I Cry)
TTITLE8=Down To My Last Broken Heart
TTITLE9=Tell Me A Lie
TTITLE10=It Ain't Easy Bein' Easy
TTITLE11=Don't Worry 'bout Me Baby
TTITLE12=Ring Of Fire (Bonus Track)
EXTD=
EXTT0=
EXTT1=
EXTT2=
EXTT3=
EXTT4=
EXTT5=
EXTT6=
EXTT7=
EXTT8=
EXTT9=
EXTT10=
EXTT11=
EXTT12=
PLAYORDER=
